<svg width="181" height="64" viewBox="0 0 181 64" fill="none" xmlns="http://www.w3.org/2000/svg">
<path d="M44 12V47.75L27 52.5L37 42.25L44 12Z" fill="#22223B"/>
<path d="M36 32L25.5 44.5L18 34.25L36 32Z" fill="#22223B"/>
<path d="M36 18L25.5 30.5L18 20.25L36 18Z" fill="#22223B"/>
<path d="M77.4648 42H73.668V35.1562H66.707V42H62.9219V25.1953H66.707V31.8984H73.668V25.1953H77.4648V42ZM95.0195 34.7227C95.0195 39.7695 92.668 42.293 87.9648 42.293C83.4023 42.293 81.1211 39.8281 81.1211 34.8984V25.1953H84.918V34.9453C84.918 37.6641 85.9805 39.0234 88.1055 39.0234C90.1914 39.0234 91.2344 37.7109 91.2344 35.0859V25.1953H95.0195V34.7227ZM113.805 42H109.984L103.059 31.4414C102.652 30.8242 102.371 30.3594 102.215 30.0469H102.168C102.23 30.6406 102.262 31.5469 102.262 32.7656V42H98.6875V25.1953H102.766L109.434 35.4258C109.738 35.8867 110.02 36.3438 110.277 36.7969H110.324C110.262 36.4062 110.23 35.6367 110.23 34.4883V25.1953H113.805V42ZM131.441 40.875C129.801 41.8203 127.762 42.293 125.324 42.293C122.621 42.293 120.488 41.5469 118.926 40.0547C117.371 38.5547 116.594 36.4922 116.594 33.8672C116.594 31.2266 117.445 29.0742 119.148 27.4102C120.852 25.7461 123.117 24.9141 125.945 24.9141C127.727 24.9141 129.297 25.1602 130.656 25.6523V29.2031C129.359 28.4531 127.773 28.0781 125.898 28.0781C124.328 28.0781 123.047 28.5898 122.055 29.6133C121.07 30.6289 120.578 31.9883 120.578 33.6914C120.578 35.418 121.02 36.7539 121.902 37.6992C122.793 38.6445 123.992 39.1172 125.5 39.1172C126.406 39.1172 127.125 38.9883 127.656 38.7305V35.4492H124.293V32.4258H131.441V40.875ZM148.809 42H144.461L141.848 37.6758C141.652 37.3477 141.465 37.0547 141.285 36.7969C141.105 36.5391 140.922 36.3203 140.734 36.1406C140.555 35.9531 140.363 35.8125 140.16 35.7188C139.965 35.6172 139.75 35.5664 139.516 35.5664H138.496V42H134.711V25.1953H140.711C144.789 25.1953 146.828 26.7188 146.828 29.7656C146.828 30.3516 146.738 30.8945 146.559 31.3945C146.379 31.8867 146.125 32.332 145.797 32.7305C145.469 33.1289 145.07 33.4727 144.602 33.7617C144.141 34.0508 143.625 34.2773 143.055 34.4414V34.4883C143.305 34.5664 143.547 34.6953 143.781 34.875C144.016 35.0469 144.242 35.25 144.461 35.4844C144.68 35.7188 144.887 35.9727 145.082 36.2461C145.285 36.5117 145.469 36.7734 145.633 37.0312L148.809 42ZM138.496 28.0312V32.707H140.137C140.949 32.707 141.602 32.4727 142.094 32.0039C142.594 31.5273 142.844 30.9375 142.844 30.2344C142.844 28.7656 141.965 28.0312 140.207 28.0312H138.496ZM162.824 25.1953L157.352 36.0234V42H153.566V36.0938L148.234 25.1953H152.559L155.266 31.4648C155.312 31.582 155.441 32.0391 155.652 32.8359H155.699C155.801 32.2734 155.922 31.832 156.062 31.5117L158.816 25.1953H162.824Z" fill="#22223B"/>
</svg>
